<svg xmlns="http://www.w3.org/2000/svg" width="1400" height="900" viewBox="0 0 1400 900">
  <rect width="1400" height="900" fill="#f8fafc"/>
  <text x="700" y="48" text-anchor="middle" font-family="Arial, sans-serif" font-size="28" font-weight="700" fill="#111827">Library Management System Use Case Diagram</text>
  <rect x="250" y="85" width="900" height="735" rx="18" fill="#ffffff" stroke="#94a3b8" stroke-width="2"/>
  <text x="700" y="120" text-anchor="middle" font-family="Arial, sans-serif" font-size="18" font-weight="700" fill="#334155">System Boundary</text>
  <g font-family="Arial, sans-serif" stroke="#111827" stroke-width="2" fill="none">
    <circle cx="110" cy="220" r="24"/>
    <line x1="110" y1="244" x2="110" y2="315"/>
    <line x1="62" y1="270" x2="158" y2="270"/>
    <line x1="110" y1="315" x2="72" y2="375"/>
    <line x1="110" y1="315" x2="148" y2="375"/>
    <text x="110" y="410" text-anchor="middle" font-size="18" fill="#111827">Member</text>
    <text x="110" y="432" text-anchor="middle" font-size="16" fill="#475569">Student/User</text>
    <circle cx="1290" cy="220" r="24"/>
    <line x1="1290" y1="244" x2="1290" y2="315"/>
    <line x1="1242" y1="270" x2="1338" y2="270"/>
    <line x1="1290" y1="315" x2="1252" y2="375"/>
    <line x1="1290" y1="315" x2="1328" y2="375"/>
    <text x="1290" y="410" text-anchor="middle" font-size="18" fill="#111827">Librarian</text>
    <text x="1290" y="432" text-anchor="middle" font-size="16" fill="#475569">Admin</text>
    <circle cx="1290" cy="635" r="24"/>
    <line x1="1290" y1="659" x2="1290" y2="730"/>
    <line x1="1242" y1="685" x2="1338" y2="685"/>
    <line x1="1290" y1="730" x2="1252" y2="790"/>
    <line x1="1290" y1="730" x2="1328" y2="790"/>
    <text x="1290" y="825" text-anchor="middle" font-size="18" fill="#111827">System Service</text>
  </g>
  <g font-family="Arial, sans-serif" font-size="15" fill="#111827" stroke="#2563eb" stroke-width="2">
    <ellipse cx="430" cy="180" rx="118" ry="35" fill="#eff6ff"/>
    <text x="430" y="185" text-anchor="middle">Search Catalog</text>
    <ellipse cx="430" cy="265" rx="118" ry="35" fill="#eff6ff"/>
    <text x="430" y="270" text-anchor="middle">View Book Details</text>
    <ellipse cx="430" cy="350" rx="118" ry="35" fill="#eff6ff"/>
    <text x="430" y="355" text-anchor="middle">Reserve Book</text>
    <ellipse cx="430" cy="435" rx="118" ry="35" fill="#eff6ff"/>
    <text x="430" y="440" text-anchor="middle">Checkout Book</text>
    <ellipse cx="430" cy="520" rx="118" ry="35" fill="#eff6ff"/>
    <text x="430" y="525" text-anchor="middle">Return Book</text>
    <ellipse cx="430" cy="605" rx="118" ry="35" fill="#eff6ff"/>
    <text x="430" y="610" text-anchor="middle">Pay Fine</text>
    <ellipse cx="430" cy="690" rx="118" ry="35" fill="#eff6ff"/>
    <text x="430" y="695" text-anchor="middle">Receive Notification</text>
    <ellipse cx="705" cy="180" rx="118" ry="35" fill="#f0fdf4" stroke="#16a34a"/>
    <text x="705" y="185" text-anchor="middle">Admin Login</text>
    <ellipse cx="705" cy="265" rx="118" ry="35" fill="#f0fdf4" stroke="#16a34a"/>
    <text x="705" y="270" text-anchor="middle">Add Book</text>
    <ellipse cx="705" cy="350" rx="118" ry="35" fill="#f0fdf4" stroke="#16a34a"/>
    <text x="705" y="355" text-anchor="middle">Update Book</text>
    <ellipse cx="705" cy="435" rx="118" ry="35" fill="#f0fdf4" stroke="#16a34a"/>
    <text x="705" y="440" text-anchor="middle">Remove Book</text>
    <ellipse cx="705" cy="520" rx="118" ry="35" fill="#f0fdf4" stroke="#16a34a"/>
    <text x="705" y="525" text-anchor="middle">Manage Members</text>
    <ellipse cx="705" cy="605" rx="118" ry="35" fill="#f0fdf4" stroke="#16a34a"/>
    <text x="705" y="610" text-anchor="middle">Issue Book</text>
    <ellipse cx="705" cy="690" rx="118" ry="35" fill="#f0fdf4" stroke="#16a34a"/>
    <text x="705" y="695" text-anchor="middle">Scan Barcode</text>
    <ellipse cx="960" cy="350" rx="122" ry="35" fill="#fff7ed" stroke="#ea580c"/>
    <text x="960" y="355" text-anchor="middle">Calculate Fine</text>
    <ellipse cx="960" cy="455" rx="122" ry="35" fill="#fff7ed" stroke="#ea580c"/>
    <text x="960" y="460" text-anchor="middle">Record Transaction</text>
    <ellipse cx="960" cy="560" rx="122" ry="35" fill="#fff7ed" stroke="#ea580c"/>
    <text x="960" y="565" text-anchor="middle">Send Notification</text>
  </g>
  <g stroke="#475569" stroke-width="2" fill="none">
    <line x1="158" y1="250" x2="316" y2="185"/>
    <line x1="158" y1="260" x2="313" y2="265"/>
    <line x1="158" y1="275" x2="316" y2="350"/>
    <line x1="158" y1="292" x2="316" y2="435"/>
    <line x1="158" y1="310" x2="316" y2="520"/>
    <line x1="158" y1="330" x2="316" y2="605"/>
    <line x1="158" y1="350" x2="316" y2="690"/>
    <line x1="1242" y1="240" x2="824" y2="180"/>
    <line x1="1242" y1="255" x2="824" y2="265"/>
    <line x1="1242" y1="270" x2="824" y2="350"/>
    <line x1="1242" y1="290" x2="824" y2="435"/>
    <line x1="1242" y1="310" x2="824" y2="520"/>
    <line x1="1242" y1="330" x2="824" y2="605"/>
    <line x1="1242" y1="350" x2="824" y2="690"/>
    <line x1="1242" y1="670" x2="1082" y2="350"/>
    <line x1="1242" y1="690" x2="1082" y2="455"/>
    <line x1="1242" y1="710" x2="1082" y2="560"/>
    <line x1="548" y1="435" x2="587" y2="605" stroke-dasharray="7 6"/>
    <line x1="548" y1="520" x2="838" y2="350" stroke-dasharray="7 6"/>
    <line x1="548" y1="605" x2="838" y2="455" stroke-dasharray="7 6"/>
    <line x1="548" y1="690" x2="838" y2="560" stroke-dasharray="7 6"/>
  </g>
  <g font-family="Arial, sans-serif" font-size="13" fill="#64748b">
    <text x="585" y="505">include</text>
    <text x="690" y="438">include</text>
    <text x="705" y="548">include</text>
    <text x="705" y="635">include</text>
  </g>
</svg>
